<svg width="145" height="32" viewBox="0 0 145 32" fill="none" xmlns="http://www.w3.org/2000/svg">
<path d="M86.8697 5.33374V4.01368H80.4307V14.539H86.8697V13.2189H81.8009V9.51979H86.8697V8.18908H81.8009V5.33374H86.8697Z" fill="#0F172A"/>
<path d="M137.883 11.3266V4.02421H136.513V14.7658L143.631 7.19384V14.5495H145V3.79727L137.882 11.3266H137.883Z" fill="#0F172A"/>
<path d="M39.6213 26.3958V19.0933H38.2404V29.8349L45.3581 22.263L45.3688 29.6187H46.739V18.8653L39.6213 26.3947V26.3958Z" fill="#0F172A"/>
<path d="M57.9138 4.01682L53.152 14.5411H51.6256L52.9278 11.6431L49.3685 4.01682H50.8821L53.6724 10.0503L56.4129 4.01682H57.9138Z" fill="#0F172A"/>
<path d="M63.6604 9.09788L66.7121 4.01368H65.105L62.8616 7.77782L60.6076 4.01368H59.0006L62.0522 9.07658L58.7839 14.5401H60.3803L62.8499 10.4297L65.3195 14.5401H66.9266L63.6583 9.09895L63.6604 9.09788Z" fill="#0F172A"/>
<path d="M113.973 6.59934C113.606 5.75552 113.067 5.0843 112.365 4.56544C111.664 4.05724 110.823 3.79727 109.852 3.79727C108.881 3.79727 108.061 4.05724 107.35 4.56544C106.628 5.0843 106.088 5.75552 105.721 6.59934C105.355 7.4325 105.171 8.33065 105.171 9.28207C105.171 10.2335 105.355 11.154 105.711 11.9861C106.077 12.8193 106.617 13.4894 107.318 13.9987C108.03 14.5069 108.871 14.7562 109.852 14.7562C110.834 14.7562 111.675 14.5069 112.376 13.9987C113.088 13.4905 113.617 12.8193 113.983 11.9861C114.339 11.153 114.523 10.2548 114.523 9.28207C114.523 8.30934 114.339 7.4325 113.973 6.59934ZM112.635 11.2947C112.43 11.9328 112.096 12.4517 111.633 12.8523C111.18 13.2529 110.586 13.4585 109.853 13.4585C109.12 13.4585 108.548 13.2529 108.085 12.8417C107.621 12.4304 107.275 11.9115 107.072 11.284C106.867 10.6565 106.759 9.98632 106.759 9.28314C106.759 8.57996 106.868 7.92046 107.083 7.28227C107.299 6.64408 107.633 6.12522 108.097 5.72462C108.549 5.32402 109.143 5.1184 109.854 5.1184C110.566 5.1184 111.16 5.32402 111.623 5.72462C112.087 6.12522 112.421 6.64408 112.636 7.28227C112.841 7.92046 112.949 8.59168 112.949 9.28314C112.949 9.9746 112.852 10.6575 112.636 11.2957L112.635 11.2947Z" fill="#0F172A"/>
<path d="M142.023 0.99514C142.023 1.11447 141.992 1.26576 141.915 1.43836C141.85 1.61096 141.721 1.76331 141.538 1.89223C141.354 2.02221 141.096 2.0872 140.751 2.0872C140.406 2.0872 140.158 2.02221 139.964 1.89223C139.78 1.76225 139.662 1.61096 139.587 1.43836C139.522 1.26576 139.49 1.1134 139.49 0.99514H138.454C138.454 1.32009 138.54 1.64398 138.714 1.96894C138.875 2.28217 139.134 2.54214 139.479 2.73711C139.825 2.94273 140.256 3.03969 140.752 3.03969C141.248 3.03969 141.702 2.94273 142.035 2.73711C142.38 2.54214 142.628 2.28324 142.801 1.96894C142.973 1.64398 143.06 1.32009 143.06 0.99514H142.023Z" fill="#0F172A"/>
<path d="M77.4437 4.02399L73.5508 11.3584L69.6579 4.02399H68.277V14.5387H69.6579V6.5874L73.5508 13.9218L77.4437 6.5874V14.5387H78.8129V4.02399H77.4437Z" fill="#0F172A"/>
<path d="M48.7018 9.76893C48.3778 9.26072 47.936 8.89315 47.3857 8.68753C47.6662 8.42756 47.8818 8.11433 48.0549 7.75741C48.2164 7.38984 48.3035 7.02227 48.3035 6.64298C48.3035 6.12412 48.1739 5.66918 47.9264 5.26965C47.6672 4.86905 47.3337 4.55581 46.9014 4.33953C46.4701 4.12325 46.006 4.01458 45.4993 4.01458H41.822V14.5399H45.5747C46.6858 14.5399 47.5589 14.2906 48.2174 13.793C48.8643 13.2955 49.1883 12.4954 49.1883 11.4129C49.1883 10.829 49.0268 10.2771 48.7029 9.76893H48.7018ZM43.1912 5.18228H45.3803C45.8328 5.18228 46.2004 5.32292 46.4914 5.59354C46.7824 5.87481 46.9226 6.22107 46.9226 6.66429C46.9226 7.20552 46.7612 7.60506 46.4266 7.87567C46.0814 8.14629 45.6395 8.27627 45.0893 8.27627H43.1912V5.18228ZM47.4729 12.3441C47.3326 12.636 47.1276 12.8853 46.8685 13.0685C46.6093 13.2635 46.3289 13.3498 46.0166 13.3498H43.1912V9.52069H46.0166C46.3289 9.52069 46.6093 9.60699 46.8685 9.80196C47.1276 9.98628 47.3326 10.2345 47.4729 10.5264C47.6237 10.8184 47.6991 11.121 47.6991 11.4246C47.6991 11.7282 47.6237 12.0415 47.4729 12.3441Z" fill="#0F172A"/>
<path d="M122.859 9.76893C122.525 9.26072 122.093 8.90381 121.543 8.69818C121.813 8.42756 122.039 8.11433 122.201 7.75741C122.373 7.40049 122.449 7.02227 122.449 6.64298C122.449 6.13477 122.33 5.66918 122.072 5.26965C121.824 4.86905 121.479 4.55581 121.059 4.33953C120.628 4.12325 120.163 4.01458 119.657 4.01458H115.969V14.5399H119.721C120.833 14.5399 121.716 14.2906 122.364 13.793C123.022 13.2955 123.346 12.506 123.346 11.4129C123.346 10.829 123.184 10.2771 122.86 9.76893H122.859ZM117.337 5.18228H119.537C119.979 5.18228 120.346 5.32292 120.648 5.59354C120.939 5.87481 121.079 6.23173 121.079 6.66429C121.079 7.20552 120.907 7.60506 120.572 7.87567C120.238 8.14629 119.796 8.27627 119.246 8.27627H117.337V5.18228ZM121.629 12.3441C121.478 12.636 121.273 12.8853 121.025 13.0685C120.766 13.2635 120.475 13.3605 120.173 13.3605H117.337V9.52069H120.173C120.475 9.52069 120.766 9.61764 121.025 9.80196C121.273 9.99693 121.477 10.2345 121.629 10.5264C121.78 10.8184 121.855 11.121 121.855 11.4353C121.855 11.7496 121.78 12.0415 121.629 12.3441Z" fill="#0F172A"/>
<path d="M57.1036 28.2347V19.0934H50.5998V22.36C50.5998 24.0913 50.5032 25.3783 50.3088 26.2221C50.1144 27.0766 49.8446 27.6179 49.5111 27.8661C49.1765 28.1154 48.7134 28.2337 48.1302 28.2337V31.0134H49.4357V29.6177H57.179V31.0134H58.4844V28.2337H57.1036V28.2347ZM51.0863 28.2347C51.3986 27.7042 51.6153 26.969 51.7555 26.0282C51.8957 25.0758 51.9711 23.8644 51.9711 22.3611V20.4784H55.7355V28.2347H51.0863Z" fill="#0F172A"/>
<path d="M88.2424 4.01771V5.34523H90.951L90.9521 14.5697H92.3255L92.3234 5.34523H95.033V4.01771H88.2424Z" fill="#0F172A"/>
<path d="M103.371 5.71197C103.112 5.21442 102.756 4.80316 102.303 4.48993C101.851 4.17669 101.354 4.01368 100.805 4.01368H96.4688V14.572H97.8496V10.6779L99.7159 10.6886C100.352 10.6886 100.827 10.6673 101.15 10.6236C101.646 10.5586 102.099 10.353 102.508 10.0067C102.908 9.67108 103.22 9.25983 103.436 8.77293C103.651 8.27538 103.76 7.77782 103.76 7.28027C103.76 6.73904 103.63 6.22017 103.371 5.71197ZM102.163 8.26472C102.012 8.57796 101.807 8.81661 101.538 9.01159C101.278 9.1959 100.987 9.29286 100.686 9.29286H97.8496V5.39873H100.686C100.987 5.39873 101.278 5.49569 101.538 5.69066C101.797 5.88563 102.002 6.13388 102.153 6.43752C102.303 6.72945 102.389 7.03203 102.389 7.34633C102.389 7.66063 102.314 7.96321 102.163 8.26579V8.26472Z" fill="#0F172A"/>
<path d="M131.725 9.82209C131.498 9.33519 131.196 8.91329 130.797 8.57768C130.387 8.24207 129.935 8.03644 129.439 7.9608C129.115 7.91712 128.641 7.89581 128.005 7.89581L126.128 7.91712V4.01234H124.759V14.5707H129.095C129.645 14.5707 130.141 14.4087 130.593 14.0944C131.046 13.7812 131.403 13.37 131.661 12.8724C131.92 12.3748 132.05 11.8443 132.05 11.3148C132.05 10.7852 131.941 10.309 131.726 9.82209H131.725ZM130.442 12.1586C130.291 12.4505 130.075 12.6998 129.826 12.8937C129.567 13.0887 129.276 13.1856 128.975 13.1856H126.127V9.29151H128.975C129.276 9.29151 129.567 9.38846 129.826 9.57278C130.096 9.76776 130.301 10.016 130.452 10.3196C130.592 10.6222 130.668 10.9259 130.668 11.2391C130.668 11.5523 130.592 11.856 130.442 12.1586Z" fill="#0F172A"/>
<path d="M134.898 4.01682H133.526V14.5677H134.898V4.01682Z" fill="#0F172A"/>
<path d="M30.0507 19.0956L30.0528 29.6156H31.4263L31.4241 20.4232H36.8424V19.0956H30.0507Z" fill="#0F172A"/>
<path d="M39.0162 13.155V4.01368H32.5124V7.28027C32.5124 9.01159 32.4157 10.2986 32.2213 11.1531C32.027 11.9969 31.7572 12.5381 31.4236 12.7864C31.089 13.0357 30.6259 13.154 30.0534 13.154V15.9336H31.3472V14.5379H39.0905V15.9336H40.3959V13.154H39.0151L39.0162 13.155ZM32.9978 13.155C33.3101 12.6244 33.5374 11.8893 33.6776 10.9485C33.8178 10.0078 33.8826 8.78465 33.8826 7.28134V5.39873H37.647V13.155H32.9978Z" fill="#0F172A"/>
<path d="M20.0041 25.844C19.9829 25.812 19.9393 25.779 19.8958 25.779H15.6141L20.8231 15.275C21.8258 13.2517 22.1603 11.0239 21.7939 8.81638C21.4593 6.85813 20.6074 5.01921 19.3031 3.52655C17.4156 1.36268 14.7728 0.108673 11.9155 0.0106542C11.667 0 11.4089 0 11.1285 0C8.22762 0.108673 5.60613 1.36268 3.71969 3.52655C2.41426 5.01921 1.56238 6.85813 1.22885 8.81638C0.862399 11.0452 1.19699 13.2837 2.22094 15.3176L5.23012 21.3213L0.00839879 31.8263C-0.0234669 31.902 0.0402644 31.9989 0.116742 31.9989H1.48697L11.3218 12.1703C11.3866 12.0617 11.5374 12.0617 11.5916 12.1703L13.5333 16.0325L5.70279 31.8274C5.65924 31.903 5.71342 32 5.81114 32H22.8943C22.9804 32 23.0452 31.903 23.0027 31.8274L20.0041 25.845V25.844ZM11.5809 9.05397C11.5703 9.03266 11.5491 9.01029 11.5268 8.99963C11.5162 8.98898 11.4949 8.97832 11.4832 8.98898C11.462 8.97832 11.4291 8.97832 11.4078 8.98898C11.3866 8.97832 11.3759 8.98898 11.3643 8.99963C11.343 8.99963 11.3207 9.02094 11.3101 9.05397L8.66736 14.3651L7.91215 12.8618C7.83673 12.7105 7.76132 12.5592 7.70714 12.4079C7.65297 12.2566 7.5988 12.1053 7.55631 11.9541C7.50214 11.8028 7.47028 11.6408 7.44797 11.4778C7.40442 11.1965 7.40442 10.9153 7.43735 10.634C7.69652 8.45946 9.35672 6.91247 11.3632 6.85813H11.6649C13.649 6.91247 15.3103 8.44881 15.5801 10.601C15.6767 11.3585 15.4611 12.1267 15.1276 12.8075L14.3076 14.4738L11.5788 9.05397H11.5809ZM20.6404 30.6032H7.8601L16.3799 13.4243C17.1245 11.9093 17.1564 10.1684 16.4553 8.64272C15.5822 6.74946 13.7701 5.52742 11.7318 5.46243C11.5916 5.45177 11.4301 5.45177 11.3005 5.46243C8.7449 5.53807 6.56635 7.41002 6.1128 10.1354C5.91842 11.2818 6.17759 12.4718 6.7055 13.5319L7.89197 15.9334L6.00445 19.7625L3.45945 14.689C2.57465 12.9151 2.27299 10.9781 2.59695 9.04225C2.88799 7.34397 3.63259 5.75329 4.75426 4.44495C6.4049 2.56234 8.66949 1.48094 11.1709 1.40529C11.4301 1.38399 11.6457 1.38399 11.8507 1.40529C14.3533 1.49159 16.6178 2.56234 18.2462 4.44495C19.3891 5.75435 20.1337 7.34397 20.4247 9.04225C20.7487 10.9675 20.446 12.9044 19.5729 14.657L13.4685 27C13.4249 27.0756 13.4791 27.1726 13.5768 27.1726H19.0449C19.0885 27.1726 19.131 27.1939 19.1533 27.2269L20.7498 30.4402C20.7933 30.5159 20.7285 30.6022 20.6414 30.6022L20.6404 30.6032Z" fill="#0F172A"/>
</svg>
